<?xml version="1.0" encoding="UTF-8"?>
<svg id="Capa_2" data-name="Capa 2" xmlns="http://www.w3.org/2000/svg" viewBox="0 0 59.28 52.85">
  <defs>
    <style>
      .cls-1 {
        fill: none;
        stroke: #211915;
        stroke-miterlimit: 10;
        stroke-width: 2px;
      }
    </style>
  </defs>
  <g id="Capa_7" data-name="Capa 7">
    <path class="cls-1" d="m45.79,45.94h11.65s-1.68-28.84,0-39.97h-29.03"/>
    <path class="cls-1" d="m24.05,34.59c.31-9.33.49-22.05-.5-28.62h24.57"/>
    <path class="cls-1" d="m44.89,16.16c.16-.03.33-.06.49-.1,6.05-1.17,11.12-2.23,11.44-2.5"/>
    <path class="cls-1" d="m24.29,20s3.63-.66,8.47-1.55"/>
    <path class="cls-1" d="m35.16,28.55c-5.81,1.11-10.56,2.09-10.87,2.35"/>
    <path class="cls-1" d="m57.44,24.47s-4.95.88-11.02,1.99"/>
    <path class="cls-1" d="m47.78,22.28c0,4.37-3.55,7.92-7.92,7.92s-7.92-3.55-7.92-7.92,3.55-7.92,7.92-7.92c1.91,0,3.66.68,5.03,1.8,1.76,1.45,2.89,3.65,2.89,6.12Z"/>
    <path class="cls-1" d="m5.82,34.94h39.67c.21,0,.39.17.39.39v15.29c0,.21-.17.39-.39.39H6.09"/>
    <line class="cls-1" x1="22.1" y1="51" x2="21.97" y2="35.49"/>
    <path class="cls-1" d="m42.14,44.94c-.08.21-.17.41-.28.61-.82,1.52-2.42,2.55-4.26,2.55-1.39,0-2.64-.58-3.52-1.52"/>
    <path class="cls-1" d="m34.71,39.38c.81-.6,1.81-.96,2.89-.96,1.59,0,3.01.77,3.89,1.96.15.2.28.4.39.62.07.14.14.29.2.43"/>
    <circle class="cls-1" cx="30.99" cy="42.97" r="4.84"/>
    <path class="cls-1" d="m22.08,48.01c.49.16,1.01.25,1.55.25,1.39,0,2.64-.58,3.52-1.52"/>
    <path class="cls-1" d="m26.51,39.54c-.81-.6-1.81-.96-2.89-.96-.5,0-.98.08-1.43.22"/>
    <line class="cls-1" x1="42.09" y1="35.35" x2="42.09" y2="50.85"/>
    <line class="cls-1" x1="7.1" y1="46.74" x2="9.95" y2="46.74"/>
    <line class="cls-1" x1="11.97" y1="46.85" x2="17.03" y2="46.85"/>
    <line class="cls-1" x1="1.46" y1="46.85" x2="4.95" y2="46.85"/>
    <line class="cls-1" x1="1.46" y1="42.81" x2="4.95" y2="42.81"/>
    <line class="cls-1" x1="1.46" y1="38.84" x2="4.95" y2="38.84"/>
    <line class="cls-1" x1=".02" y1="34.94" x2="5.82" y2="34.94"/>
    <line class="cls-1" x1=".02" y1="33.84" x2="3.88" y2="33.84"/>
    <line class="cls-1" x1=".02" y1="51.85" x2="3.88" y2="51.85"/>
    <line class="cls-1" x1=".02" y1="51" x2="6.64" y2="51"/>
    <line class="cls-1" x1="1" y1="50.68" x2="1" y2="35.88"/>
    <path class="cls-1" d="m23.42,4.8l-.16-1.73c-.11-1.12,0-2.07,2.4-2.07l31.2.2c.9,0,1.56.67,1.38,1.37l-.67,2.63-34.16-.41Z"/>
    <path class="cls-1" d="m46.1,46.45l11.44.14.16,1.73c.11,1.12,0,2.07-2.4,2.07l-9.41-.06"/>
  </g>
</svg>