<?xml version="1.0" encoding="UTF-8"?>
<svg id="Capa_2" data-name="Capa 2" xmlns="http://www.w3.org/2000/svg" viewBox="0 0 695.65 660.87">
  <g id="Layer_1" data-name="Layer 1">
    <g>
      <path d="m278.26,156.52c0,9.6,7.79,17.39,17.39,17.39s17.39-7.79,17.39-17.39c0-10.64,5.53-17.39,14.5-27.55,9.04-10.19,20.28-22.85,20.28-42.02s-11.06-30.92-19.93-40.42c-9.5-10.19-14.85-16.52-14.85-29.15,0-9.6-7.79-17.39-17.39-17.39s-17.39,7.79-17.39,17.39c0,26.92,13.98,41.95,24.21,52.87,7.69,8.21,10.57,11.79,10.57,16.7,0,5.7-4.17,10.64-11.51,18.92-9.81,11.1-23.27,26.26-23.27,50.64Z"/>
      <path d="m382.61,156.52c0,9.6,7.79,17.39,17.39,17.39s17.39-7.79,17.39-17.39c0-10.64,5.53-17.39,14.5-27.55,9.04-10.19,20.28-22.85,20.28-42.02s-11.06-30.92-19.93-40.42c-9.5-10.19-14.85-16.52-14.85-29.15,0-9.6-7.79-17.39-17.39-17.39s-17.39,7.79-17.39,17.39c0,26.92,13.98,41.95,24.21,52.87,7.69,8.21,10.57,11.79,10.57,16.7,0,5.7-4.17,10.64-11.51,18.92-9.81,11.1-23.27,26.26-23.27,50.64Z"/>
      <path d="m591.3,313.04c-11.97,0-23.65,2.23-34.78,6.26v-23.65c0-47.93-39.03-86.96-86.96-86.96H86.96C39.03,208.7,0,247.72,0,295.65v139.13c0,124.66,101.43,226.09,226.09,226.09h104.35c98.47,0,182.19-63.37,213.15-151.37,14.75,7.76,30.99,12.24,47.72,12.24,57.53,0,104.35-46.82,104.35-104.35s-46.82-104.35-104.35-104.35Zm-69.56,121.74c0,14.02-1.7,28.56-5.08,43.17-19.65,84.73-95.58,148.14-186.23,148.14h-104.35c-105.5,0-191.3-85.81-191.3-191.3v-139.13c0-28.77,23.41-52.17,52.17-52.17h382.61c28.77,0,52.17,23.41,52.17,52.17v139.13Zm69.56,52.17c-13.67,0-27.03-4.21-38.5-12,.07-.35.03-.7.1-1.08,2.23-12.73,3.62-25.74,3.62-39.1v-77.32c10.68-6.33,22.57-9.63,34.78-9.63,38.37,0,69.57,31.2,69.57,69.56s-31.2,69.57-69.57,69.57Z"/>
      <path d="m173.91,156.52c0,9.6,7.79,17.39,17.39,17.39s17.39-7.79,17.39-17.39c0-10.64,5.53-17.39,14.5-27.55,9.04-10.19,20.28-22.85,20.28-42.02s-11.06-30.92-19.93-40.42c-9.5-10.19-14.85-16.52-14.85-29.15,0-9.6-7.79-17.39-17.39-17.39s-17.39,7.79-17.39,17.39c0,26.92,13.98,41.95,24.21,52.87,7.69,8.21,10.57,11.79,10.57,16.7,0,5.7-4.17,10.64-11.51,18.92-9.81,11.1-23.27,26.26-23.27,50.64Z"/>
    </g>
  </g>
</svg>