<?xml version="1.0" encoding="UTF-8"?>
<svg id="Capa_2" data-name="Capa 2" xmlns="http://www.w3.org/2000/svg" viewBox="0 0 87.37 64.26">
  <defs>
    <style>
      .cls-1 {
        fill: #fff;
      }

      .cls-2 {
        fill: #070508;
      }

      .cls-3 {
        fill: none;
        stroke: #070508;
        stroke-linecap: round;
        stroke-miterlimit: 133.33;
        stroke-width: 3.33px;
      }
    </style>
  </defs>
  <g id="Capa_1-2" data-name="Capa 1">
    <path class="cls-2" d="m31.25,34.25c-3.24,0-5.78,2.54-5.78,5.78s2.54,5.78,5.78,5.78,5.78-2.54,5.78-5.78c0-3.24-2.54-5.78-5.78-5.78Zm0,9.25c-1.97,0-3.47-1.5-3.47-3.47s1.5-3.47,3.47-3.47,3.47,1.5,3.47,3.47-1.5,3.47-3.47,3.47Z"/>
    <path class="cls-2" d="m12.74,36.57c-1.97,0-3.47,1.5-3.47,3.47s1.5,3.47,3.47,3.47,3.47-1.5,3.47-3.47-1.5-3.47-3.47-3.47Zm0,4.63c-.69,0-1.16-.46-1.16-1.16s.46-1.16,1.16-1.16,1.16.46,1.16,1.16-.46,1.16-1.16,1.16Z"/>
    <path class="cls-2" d="m41.66,51.6c-1.97,0-3.47,1.5-3.47,3.47s1.5,3.47,3.47,3.47,3.47-1.5,3.47-3.47-1.5-3.47-3.47-3.47Zm0,4.63c-.69,0-1.16-.46-1.16-1.16s.46-1.16,1.16-1.16,1.16.46,1.16,1.16-.46,1.16-1.16,1.16Z"/>
    <path class="cls-2" d="m24.31,48.13c-1.97,0-3.47,1.5-3.47,3.47s1.5,3.47,3.47,3.47,3.47-1.5,3.47-3.47c0-1.97-1.5-3.47-3.47-3.47Zm0,4.63c-.69,0-1.16-.46-1.16-1.16s.46-1.16,1.16-1.16,1.16.46,1.16,1.16-.46,1.16-1.16,1.16Z"/>
    <path class="cls-2" d="m35.87,19.22c-2.54,0-4.63,1.5-4.63,3.47s2.08,3.47,4.63,3.47,4.63-1.5,4.63-3.47-2.08-3.47-4.63-3.47Zm0,4.63c-1.39,0-2.31-.69-2.31-1.16s.93-1.16,2.31-1.16,2.31.69,2.31,1.16-.93,1.16-2.31,1.16Z"/>
    <path class="cls-2" d="m49.75,41.19c-.69,0-1.16.46-1.16,1.16v18.5h-29.03c-.46-1.97-2.31-3.47-4.51-3.47s-3.93,1.5-4.51,3.47H2.34v-6.94c2.54,0,4.63-2.08,4.63-4.63s-2.08-4.63-4.63-4.63v-10.41c0-.69-.46-1.16-1.16-1.16s-1.16.46-1.16,1.16v11.8c0,.35.23.69.46.93.35.23.69.23,1.04.12.35-.12.58-.12.81-.12,1.27,0,2.31,1.04,2.31,2.31s-1.04,2.31-2.31,2.31c-.23,0-.46,0-.81-.12s-.69-.12-1.04.12-.46.58-.46.93v9.48c0,.69.46,1.16,1.16,1.16h10.41c.69,0,1.16-.46,1.16-1.16,0-1.27,1.04-2.31,2.31-2.31s2.31,1.04,2.31,2.31c0,.69.46,1.16,1.16,1.16h31.23c.69,0,1.16-.46,1.16-1.16v-19.66c0-.69-.46-1.16-1.16-1.16Z"/>
    <path class="cls-2" d="m33.56,14.59c-.12,0-.35,0-.46.12L.72,28.59c-.46.23-.81.81-.69,1.27.12.58.58.93,1.16.93h19.43c.69.69,1.62,1.16,2.54,1.16s1.97-.46,2.54-1.16h19.43c.69,0,1.16-.46,1.16-1.16s-.46-1.16-1.16-1.16h-20.01c-.46,0-.81.23-1.04.58-.35.69-1.39.69-1.97.12,0-.23-.12-.46-.12-.69,0-.69.46-1.16,1.16-1.16s1.16-.46,1.16-1.16-.46-1.16-1.16-1.16c-1.97,0-3.47,1.5-3.47,3.47H6.85l26.95-11.57c8.21.12,14.8,5.78,14.8,12.72v5.9c-1.97.46-3.47,2.31-3.47,4.51,0,.69.46,1.16,1.16,1.16s1.16-.46,1.16-1.16c0-1.27,1.04-2.31,2.31-2.31.69,0,1.16-.46,1.16-1.16v-6.94c0-8.33-7.75-15.03-17.35-15.03Z"/>
    <path class="cls-1" d="m30.56,14.63l14.79-5.91,7.89,1.38s4.36,3.77,4.46,4,3.25,5.81,3.25,5.81v9.22l-7.69,22.46-22.69-17.31V14.63Z"/>
    <polygon class="cls-1" points="30.03 15.2 25.54 22.28 25.91 29.88 28.98 33.1 33.85 30.54 30.03 15.2"/>
    <g id="Pork">
      <path id="Combined-Shape" class="cls-3" d="m84.3,47.5c1.89,1.9,1.88,4.96-.02,6.85-1.49,1.49-3.72,1.8-5.51.93l-.39.39c.85,1.8.53,4.02-.96,5.51-1.9,1.89-4.96,1.88-6.85-.02s-1.88-4.96.02-6.85c.4-.4.86-.71,1.34-.94l-5.88-5.91c.87-.62,1.7-1.31,2.48-2.09s1.48-1.6,2.1-2.47l5.88,5.91c.23-.48.55-.93.95-1.33,1.9-1.89,4.96-1.88,6.85.02ZM26.57,30.67l-.05-.04c-3.77-3.79-.68-12.98,6.9-20.53S50.21-.49,53.98,3.3h0l14.61,14.68c7.55,7.58,7.51,19.85-.07,27.4-7.58,7.55-19.85,7.51-27.4-.07h0l-14.56-14.64Zm-.05-.04c3.77,3.79,12.98.75,20.56-6.8s10.68-16.74,6.9-20.53c-3.77-3.79-12.98-.75-20.56,6.8s-10.68,16.74-6.9,20.53Zm9.16-9.11c1.26,1.26,4.33.25,6.85-2.27s3.56-5.58,2.3-6.84-4.33-.25-6.85,2.27-3.56,5.58-2.3,6.84Z"/>
    </g>
  </g>
</svg>