<?xml version="1.0" encoding="UTF-8"?>
<svg id="Capa_2" data-name="Capa 2" xmlns="http://www.w3.org/2000/svg" viewBox="0 0 56.29 59.96">
  <defs>
    <style>
      .cls-1 {
        fill: none;
        stroke: #211915;
        stroke-miterlimit: 10;
        stroke-width: 2px;
      }
    </style>
  </defs>
  <g id="Capa_6" data-name="Capa 6">
    <rect class="cls-1" x="22.56" y="16.82" width="32.74" height="3.97" rx="1.99" ry="1.99"/>
    <path class="cls-1" d="m35.18,54.72h18.13c1.1,0,1.99.89,1.99,1.99h0c0,1.1-.89,1.99-1.99,1.99h-18.16"/>
    <line class="cls-1" x1="53.12" y1="21.31" x2="53.18" y2="54.43"/>
    <line class="cls-1" x1="25.1" y1="20.79" x2="25.13" y2="38.72"/>
    <ellipse class="cls-1" cx="42.71" cy="8.65" rx="8.96" ry="7.65"/>
    <path class="cls-1" d="m33.79,38.71c-.03-.22-.04-.45-.04-.68,0-3.03,2.46-5.49,5.49-5.49s5.49,2.46,5.49,5.49-2.46,5.49-5.49,5.49c-1.24,0-2.38-.41-3.3-1.1-.24-.18-.46-.38-.67-.59"/>
    <path class="cls-1" d="m39.24,36.07s.11-4.28,1.7-6.32"/>
    <path class="cls-1" d="m37.18,36.6s2.29-.59,3.76,0"/>
    <path class="cls-1" d="m28.59,38.03c-.01-.2-.02-.4-.02-.59,0-6.08,4.92-11,11-11s11,4.92,11,11-4.92,11-11,11c-1.5,0-2.92-.3-4.23-.84"/>
    <rect class="cls-1" x="1" y="39.13" width="34.15" height="19.82" rx=".51" ry=".51"/>
    <line class="cls-1" x1="1" y1="42.72" x2="34.78" y2="42.81"/>
    <line class="cls-1" x1="1.37" y1="55" x2="35.15" y2="55.09"/>
    <path class="cls-1" d="m9.68,48.23l3.31-2.66c.8-.64,1.8-.99,2.82-.99h1.89c1.05,0,2.05.44,2.76,1.21l2.1,1.93c.33.31.5.72.51,1.14s-.16.84-.5,1.15l-2.54,2.37c-.53.49-1.22.76-1.94.76h-2.63c-.74,0-1.47-.23-2.07-.67l-3.67-2.65c-.53-.38-.55-1.17-.04-1.58Z"/>
    <polygon class="cls-1" points="27.13 44.72 23.4 48.44 27.37 52.38 27.13 44.72"/>
    <line class="cls-1" x1="15.13" y1="47.06" x2="15.15" y2="48.85"/>
  </g>
</svg>