<?xml version="1.0" encoding="UTF-8"?>
<svg id="Capa_2" data-name="Capa 2" xmlns="http://www.w3.org/2000/svg" viewBox="0 0 195.25 174.85">
  <defs>
    <style>
      .cls-1 {
        fill: #f7f7f8;
      }

      .cls-2 {
        fill: #070508;
      }
    </style>
  </defs>
  <g id="Capa_7" data-name="Capa 7">
    <g>
      <path class="cls-2" d="m191.6,57.87l-16.87-33.43v-7.7h.93c1.54,0,2.79-1.25,2.79-2.79V2.79c0-1.54-1.25-2.79-2.79-2.79h-40.26c-1.54,0-2.79,1.25-2.79,2.79v11.15c0,1.54,1.25,2.79,2.79,2.79h.93v7.7l-16.87,33.43c-2.05,4.05-3.65,10.79-3.65,15.33v91.32c0,5.64,4.59,10.22,10.22,10.22h59c5.64,0,10.22-4.59,10.22-10.22v-91.32c0-4.54-1.6-11.28-3.65-15.33h0ZM138.19,5.58h34.68v5.58h-34.68v-5.58h0Zm3.42,20.78c.2-.39.3-.82.3-1.26v-8.37h27.24v8.37c0,.44.1.87.3,1.26l10.61,21.03c-2.01.65-3.42,1.7-4.64,2.62-1.66,1.24-2.85,2.13-5.52,2.13s-3.86-.89-5.52-2.13c-1.93-1.44-4.34-3.24-8.86-3.24s-6.92,1.8-8.86,3.24c-1.65,1.24-2.85,2.13-5.52,2.13s-3.86-.89-5.52-2.13c-1.22-.91-2.63-1.96-4.64-2.62l10.61-21.03h0Zm48.07,138.16c0,2.56-2.08,4.65-4.65,4.65h-59c-2.56,0-4.65-2.08-4.65-4.65v-91.32c0-3.67,1.4-9.54,3.05-12.82l3.99-7.91c1.6.3,2.6,1.04,3.87,1.99,1.93,1.44,4.34,3.24,8.86,3.24s6.92-1.8,8.86-3.24c1.65-1.24,2.85-2.13,5.52-2.13s3.86.89,5.52,2.13c1.93,1.44,4.34,3.24,8.86,3.24s6.92-1.8,8.86-3.24c1.27-.95,2.27-1.69,3.87-1.99l3.99,7.91c1.65,3.28,3.05,9.15,3.05,12.82v91.32h0Z"/>
      <path class="cls-2" d="m129.75,146.86c-1.54,0-2.79,1.25-2.79,2.79v11.15c0,1.54,1.25,2.79,2.79,2.79s2.79-1.25,2.79-2.79v-11.15c0-1.54-1.25-2.79-2.79-2.79Z"/>
      <path class="cls-2" d="m133.16,61.66c-1.37-.69-3.05-.14-3.75,1.23-1.24,2.45-2.45,7.56-2.45,10.3v65.3c0,1.54,1.25,2.79,2.79,2.79s2.79-1.25,2.79-2.79v-65.3c0-1.89,1.01-6.11,1.85-7.79.69-1.37.14-3.05-1.23-3.75Z"/>
      <path class="cls-2" d="m150.27,27.88h10.51c1.54,0,2.79-1.25,2.79-2.79s-1.25-2.79-2.79-2.79h-10.51c-1.54,0-2.79,1.25-2.79,2.79s1.25,2.79,2.79,2.79h0Z"/>
    </g>
    <rect class="cls-1" x="115.81" y="72.8" width="50.31" height="96.15"/>
    <g>
      <path class="cls-2" d="m20.63,117.39c1.63,0,2.95-1.32,2.95-2.95,0-15.44,8.59-27.99,19.15-27.99,1.63,0,2.95-1.32,2.95-2.95s-1.32-2.95-2.95-2.95c-13.81,0-25.05,15.2-25.05,33.89,0,1.63,1.32,2.95,2.95,2.95Z"/>
      <path class="cls-2" d="m100.18,117.39c1.63,0,2.95-1.32,2.95-2.95,0-15.44,8.59-27.99,19.15-27.99,1.63,0,2.95-1.32,2.95-2.95s-1.32-2.95-2.95-2.95c-13.81,0-25.05,15.2-25.05,33.89,0,1.63,1.32,2.95,2.95,2.95Z"/>
      <path class="cls-2" d="m162.06,136.54h-7.56c3.01-6.74,4.61-14.27,4.61-22.1,0-25.18-16.52-45.67-36.83-45.67s-36.83,20.49-36.83,45.67c0,7.83,1.6,15.36,4.61,22.1h-15.11c3.01-6.74,4.61-14.27,4.61-22.1,0-25.18-16.52-45.67-36.83-45.67-20.31,0-36.83,20.49-36.83,45.67,0,7.83,1.6,15.36,4.61,22.1H2.95c-1.63,0-2.95,1.32-2.95,2.95v17.68c0,1.63,1.32,2.95,2.95,2.95h9.37l2.47,12.36c.28,1.38,1.48,2.37,2.89,2.37h50.09c1.4,0,2.61-.99,2.89-2.37l2.47-12.36h18.74l2.47,12.36c.28,1.38,1.48,2.37,2.89,2.37h50.09c1.4,0,2.61-.99,2.89-2.37l2.47-12.36h9.37c1.63,0,2.95-1.32,2.95-2.95v-17.68c0-1.63-1.32-2.95-2.95-2.95Zm-39.78-61.88c17.06,0,30.94,17.84,30.94,39.78,0,7.95-1.8,15.55-5.23,22.1h-51.42c-3.43-6.55-5.23-14.15-5.23-22.1,0-21.94,13.88-39.78,30.94-39.78Zm-79.56,0c17.06,0,30.94,17.84,30.94,39.78,0,7.95-1.8,15.55-5.23,22.1H17.01c-3.42-6.55-5.23-14.15-5.23-22.1,0-21.94,13.88-39.78,30.94-39.78Zm22.63,94.29H20.1l-1.77-8.84h48.8l-1.77,8.84Zm79.56,0h-45.26l-1.77-8.84h48.8l-1.77,8.84Zm14.2-14.73H5.89v-11.79h153.22v11.79Z"/>
    </g>
  </g>
</svg>