<?xml version="1.0" encoding="UTF-8"?>
<svg id="Capa_2" data-name="Capa 2" xmlns="http://www.w3.org/2000/svg" viewBox="0 0 67.46 52.3">
  <defs>
    <style>
      .cls-1 {
        fill: none;
        stroke: #211915;
        stroke-miterlimit: 10;
        stroke-width: 2px;
      }
    </style>
  </defs>
  <g id="Capa_5" data-name="Capa 5">
    <path class="cls-1" d="m13.02,11.08c-1.77-.13-3.19-1.01-4.08-2.55-.64-1.09-.89-2.38-.59-3.67.11-.49.29-.94.54-1.32h0c.98-1.47,2.65-2.37,4.44-2.37l48.19-.17"/>
    <path class="cls-1" d="m58.82,11.3l2.72-.22c1.77-.13,3.31-1.18,4.2-2.71.64-1.09.89-2.38.59-3.67-.11-.49-.29-.94-.54-1.32h0c-.98-1.47-2.65-2.37-4.44-2.37"/>
    <path class="cls-1" d="m48.45,1.11c1.79,0,3.46.9,4.44,2.37h0c.25.38.43.83.54,1.32.29,1.29.04,2.58-.59,3.67-.9,1.53-2.58,2.44-4.35,2.57"/>
    <path class="cls-1" d="m12.95,35.83V10.09"/>
    <path class="cls-1" d="m58.97,10.16v38.74c0,1.33-1.09,2.41-2.43,2.41H15.38"/>
    <line class="cls-1" x1="48.64" y1="10.01" x2="48.45" y2="51.86"/>
    <path class="cls-1" d="m7.49,40.94l.65-1.44c1.18-2.62,3.96-4.14,6.8-3.73l.4.06v15.49H1v-6.04l.51-.76c1.35-2.03,3.55-3.34,5.98-3.56h0Z"/>
    <line class="cls-1" x1="7.49" y1="40.94" x2="7.44" y2="51.3"/>
    <path class="cls-1" d="m16.13,34.98v.71c3.44-2.3,8.47-3.38,11.92-1.09l1.36.9,1.35.04c3.14.09,5.91,2.08,6.99,5.04h0s1.66.7,1.66.7c1.94.82,3.49,2.35,4.34,4.28h0v5.47"/>
    <line class="cls-1" x1="29.41" y1="35.51" x2="29.46" y2="51.57"/>
    <line class="cls-1" x1="37.75" y1="40.58" x2="37.71" y2="51.3"/>
  </g>
</svg>