<?xml version="1.0" encoding="UTF-8"?>
<svg id="Capa_2" data-name="Capa 2" xmlns="http://www.w3.org/2000/svg" viewBox="0 0 60.13 35.87">
  <defs>
    <style>
      .cls-1 {
        fill: none;
        stroke: #211915;
        stroke-miterlimit: 10;
        stroke-width: 2px;
      }
    </style>
  </defs>
  <g id="Capa_2-2" data-name="Capa 2">
    <path class="cls-1" d="m10.75,23.32L16.26,3.69c.45-1.59,1.89-2.69,3.54-2.69h20.49c1.84,0,3.45,1.22,3.96,2.99l5.5,19.34H10.75Z"/>
    <path class="cls-1" d="m3.26,23.76h53.62c.69,0,1.36.27,1.86.75h0c.59.56.49,1.53-.19,1.97l-1.29.82-7,6.55c-.72.67-1.66,1.04-2.64,1.03l-34.56-.32c-1.14-.01-2.22-.47-3.02-1.27l-5.72-5.72-2.76-1.28c-.54-.25-.73-.93-.38-1.42h0c.47-.68,1.25-1.09,2.09-1.09Z"/>
    <path class="cls-1" d="m15.31,7.08h14.48c1.57,0,2.84,1.27,2.84,2.84v1.81c0,1.35,1.09,2.44,2.44,2.44h.06c1.28,0,2.42-.82,2.83-2.03h0c.18-.54.7-.89,1.27-.86l.43.02c1.01.06,1.92-.6,2.18-1.57l.32-1.19c.27-1.02,1.2-1.73,2.26-1.73h.63"/>
  </g>
</svg>