<?xml version="1.0" encoding="UTF-8"?>
<svg id="Capa_2" data-name="Capa 2" xmlns="http://www.w3.org/2000/svg" viewBox="0 0 59.47 62.27">
  <defs>
    <style>
      .cls-1 {
        fill: none;
        stroke: #211915;
        stroke-miterlimit: 10;
        stroke-width: 2px;
      }
    </style>
  </defs>
  <g id="Capa_1-2" data-name="Capa 1">
    <g>
      <path class="cls-1" d="m16.67,30.26l-3.2.67c-2.58.54-5.26.07-7.52-1.27-.01,0-.02-.01-.03-.02C-2.57,24.6.58,11.5,10.4,10.43h.01s1-1.18,1-1.18c.55-4.55,17.11-5.66,13.68,7.68"/>
      <path class="cls-1" d="m34.44,11.14l6.54-2.85c3.38-1.06,7.14.33,8.79,3.46,1.99,3.79,2.13,8.98-1.45,11.33h0"/>
      <path class="cls-1" d="m20.83,6.69l.21-.41c1.6-3.13,4.77-5.26,8.29-5.27,1.09,0,2.15.13,3.06.39,2.69.77,4.86,2.78,6.07,5.31l.81,1.68"/>
      <path class="cls-1" d="m38.04,23.96l-.44.41c-3.32,3.08-8.08,4.26-12.31,2.73-1.31-.48-2.52-1.1-3.51-1.83"/>
      <path class="cls-1" d="m6.03,19.43l.05,1.35c.08,2.02,1.51,3.82,3.51,4.15.03,0,.06,0,.09.01,2.51.37,4.75-1.67,4.85-4.21l.03-.77"/>
      <path class="cls-1" d="m6.38,29.89c-.78.73.19,8.1,6.59,7.78"/>
      <path class="cls-1" d="m14.56,36.84l1.22,1.13c1.84,1.7,4.78,1.72,6.45-.14.24-.26.44-.55.62-.86.79-1.38.66-3.1-.15-4.47h0c-.33-.56-.29-1.27.11-1.78l2.75-3.53"/>
      <path class="cls-1" d="m45.32,31.14l4.5,1.5c1.65.55,3.48.51,5.02-.3,6.36-3.35,3.74-14.96-3.06-15.18"/>
      <path class="cls-1" d="m45.85,31.14l-5.36.64c-.58.07-1.13.25-1.63.56-1.42.87-4.85,2.36-6.6-2.14"/>
      <path class="cls-1" d="m20.03,39.49s.99,20.41.82,22.71"/>
      <path class="cls-1" d="m44.2,31.74c-.18.16-6.59,15.28-5.47,30.1"/>
      <path class="cls-1" d="m23.11,36.4s2.56,5.21,3.21,10.79"/>
      <path class="cls-1" d="m39.36,32.09s-6.73,7.05-6.08,15.11"/>
      <path class="cls-1" d="m41.67,40.37s8.88.07,10.88-7.08"/>
    </g>
  </g>
</svg>